<svg xmlns="http://www.w3.org/2000/svg" width="256" height="256" viewBox="0 0 256 256" role="img" aria-label="Green Door brand kit asset">
  <defs>
    <style>
  .bg { fill: #FBFAF6; }
  .ink { fill: none; stroke: #222522; stroke-width: 1.25; stroke-linecap: round; stroke-linejoin: round; }
  .ink2 { fill: none; stroke: #222522; stroke-width: 0.85; stroke-linecap: round; stroke-linejoin: round; opacity: .92; }
  .pale { fill: none; stroke: #D8D8CF; stroke-width: 1; stroke-linecap: round; stroke-linejoin: round; }
  .pale2 { fill: none; stroke: #A7AAA2; stroke-width: .75; stroke-linecap: round; stroke-linejoin: round; opacity: .52; }
  .green { fill: #427842; stroke: #2E5634; stroke-width: 1.1; stroke-linejoin: round; }
  .green-line { fill: none; stroke: #427842; stroke-width: 1.2; stroke-linecap: round; stroke-linejoin: round; }
  .green-dot { fill: #427842; stroke: none; }
  .brass { fill: #B79A5B; stroke: #222522; stroke-width: .45; }
  .label { fill: #222522; font-family: Georgia, 'Times New Roman', serif; letter-spacing: .18em; }
  .label-green { fill: #2E5634; font-family: Georgia, 'Times New Roman', serif; font-style: italic; letter-spacing: .08em; }
</style>
    <filter id="paperNoise" x="0" y="0" width="100%" height="100%">
      <feTurbulence type="fractalNoise" baseFrequency="0.9" numOctaves="2" stitchTiles="stitch"/>
      <feColorMatrix type="saturate" values="0"/>
      <feComponentTransfer><feFuncA type="table" tableValues="0 0.025"/></feComponentTransfer>
    </filter>
    <pattern id="microgrid" width="64" height="64" patternUnits="userSpaceOnUse">
      <path d="M64 0H0V64" class="pale2" opacity=".18"/>
      <circle cx="0" cy="0" r="1" fill="#427842" opacity=".25"/>
    </pattern>
  </defs>

  <rect class="bg" width="256" height="256"/>
  <path d="M42 204C78 165 106 142 128 128C154 111 184 86 214 52" class="ink"/>
  <path d="M112 138C88 112 66 102 44 104M142 115C150 78 174 58 206 48M128 128C148 148 166 156 196 154" class="pale2"/>
  <circle cx="42" cy="204" r="5" class="green-dot"/><circle cx="214" cy="52" r="5" class="green-dot"/><circle cx="196" cy="154" r="4" class="green-dot" opacity=".5"/>

</svg>