<svg xmlns="http://www.w3.org/2000/svg" viewBox="0 0 640 210" fill="none">
  <path d="M18 170 C140 132 225 116 328 72 C430 29 522 30 616 47" stroke="#4A4A45" stroke-width="2" stroke-linecap="round"/>
  <path d="M174 123 C159 91 150 65 121 44" stroke="#4A4A45" stroke-width="1.3" stroke-linecap="round"/>
  <path d="M344 65 C351 31 374 18 408 15" stroke="#4A4A45" stroke-width="1.3" stroke-linecap="round"/>
  <path d="M465 41 C494 65 523 73 560 74" stroke="#4A4A45" stroke-width="1.3" stroke-linecap="round"/>
  <g stroke="#D48478" stroke-width="1" fill="#F3D8CF">
    <circle cx="120" cy="44" r="8"/><circle cx="150" cy="84" r="6"/><circle cx="220" cy="112" r="7"/>
    <circle cx="372" cy="20" r="8"/><circle cx="407" cy="15" r="6"/><circle cx="493" cy="65" r="7"/>
    <circle cx="560" cy="74" r="6"/><circle cx="600" cy="48" r="8"/>
  </g>
  <g stroke="#5A6F50" stroke-width="1.2" fill="none" stroke-linecap="round">
    <path d="M200 118 C220 100 235 103 247 117"/><path d="M420 28 C439 19 454 22 462 37"/>
    <path d="M574 64 C589 52 604 54 615 66"/>
  </g>
</svg>
