<svg xmlns="http://www.w3.org/2000/svg" viewBox="0 0 320 440" role="img" aria-label="Зелёная дверь">
  <defs>
    <pattern id="grain04" width="18" height="18" patternUnits="userSpaceOnUse">
      <path d="M0 18L18 0" stroke="#edf4ef" stroke-width="1"/>
    </pattern>
  </defs>
  <rect width="320" height="440" fill="#fbfcf7"/>
  <rect x="16" y="16" width="288" height="408" fill="url(#grain04)" opacity=".72"/>
  <rect x="28" y="28" width="264" height="384" fill="none" stroke="#103d32" stroke-width="1.8"/>
  <rect x="40" y="40" width="240" height="360" fill="none" stroke="#83aa94" stroke-width="1"/>
  <g fill="none" stroke="#103d32" stroke-width="3" stroke-linecap="round" stroke-linejoin="round">
    <rect x="104" y="74" width="112" height="204" rx="3"/><rect x="124" y="104" width="72" height="144" rx="2"/><circle cx="190" cy="177" r="6"/><path d="M92 288h136"/><path d="M160 278v42"/>
  </g>
  <g fill="none" stroke="#70ad83" stroke-width="1.2" opacity=".9">
    <path d="M66 328h188M66 336h188M66 344h188"/>
    <path d="M66 360h102M66 368h142"/>
  </g>
  <text x="66" y="72" font-family="Georgia, 'Times New Roman', serif" font-size="18" fill="#103d32" letter-spacing="4">04</text>
  <text x="66" y="386" font-family="Inter, Arial, sans-serif" font-size="12" fill="#103d32" letter-spacing="2">ЗЕЛЁНАЯ ДВЕРЬ</text>
  <text x="66" y="404" font-family="Inter, Arial, sans-serif" font-size="9" fill="#547367" letter-spacing="1.2">LIBER CARDINIS</text>
</svg>