<svg xmlns="http://www.w3.org/2000/svg" viewBox="0 0 320 440" role="img" aria-label="Сад забытых голосов">
  <defs>
    <pattern id="grain06" width="18" height="18" patternUnits="userSpaceOnUse">
      <path d="M0 18L18 0" stroke="#edf4ef" stroke-width="1"/>
    </pattern>
  </defs>
  <rect width="320" height="440" fill="#fbfcf7"/>
  <rect x="16" y="16" width="288" height="408" fill="url(#grain06)" opacity=".72"/>
  <rect x="28" y="28" width="264" height="384" fill="none" stroke="#103d32" stroke-width="1.8"/>
  <rect x="40" y="40" width="240" height="360" fill="none" stroke="#83aa94" stroke-width="1"/>
  <g fill="none" stroke="#103d32" stroke-width="3" stroke-linecap="round" stroke-linejoin="round">
    <path d="M92 260c26-37 50-54 68-52c18-2 42 15 68 52"/><path d="M160 208V102"/><path d="M160 146c-30-28-64-35-95-21c10 32 38 50 79 48"/><path d="M160 162c35-31 70-38 102-21c-12 34-43 52-86 48"/><path d="M122 280c18 10 58 10 76 0"/>
  </g>
  <g fill="none" stroke="#70ad83" stroke-width="1.2" opacity=".9">
    <path d="M66 328h188M66 336h188M66 344h188"/>
    <path d="M66 360h102M66 368h142"/>
  </g>
  <text x="66" y="72" font-family="Georgia, 'Times New Roman', serif" font-size="18" fill="#103d32" letter-spacing="4">06</text>
  <text x="66" y="386" font-family="Inter, Arial, sans-serif" font-size="12" fill="#103d32" letter-spacing="2">САД ЗАБЫТЫХ ГОЛОСОВ</text>
  <text x="66" y="404" font-family="Inter, Arial, sans-serif" font-size="9" fill="#547367" letter-spacing="1.2">HORTUS VOCUM</text>
</svg>