<svg xmlns="http://www.w3.org/2000/svg" viewBox="0 0 320 440" role="img" aria-label="Arbor Exilii">
  <defs>
    <pattern id="grain02" width="18" height="18" patternUnits="userSpaceOnUse">
      <path d="M0 18L18 0" stroke="#edf4ef" stroke-width="1"/>
    </pattern>
  </defs>
  <rect width="320" height="440" fill="#fbfcf7"/>
  <rect x="16" y="16" width="288" height="408" fill="url(#grain02)" opacity=".72"/>
  <rect x="28" y="28" width="264" height="384" fill="none" stroke="#103d32" stroke-width="1.8"/>
  <rect x="40" y="40" width="240" height="360" fill="none" stroke="#83aa94" stroke-width="1"/>
  <g fill="none" stroke="#103d32" stroke-width="3" stroke-linecap="round" stroke-linejoin="round">
    <path d="M160 245V105"/><path d="M160 120c-42 12-64 38-70 72M160 125c42 10 66 38 74 74M160 175c-30 10-50 28-62 55M160 175c32 10 54 29 66 58"/><path d="M118 96c25-28 59-26 84 0c-15 16-69 16-84 0z"/>
  </g>
  <g fill="none" stroke="#70ad83" stroke-width="1.2" opacity=".9">
    <path d="M66 328h188M66 336h188M66 344h188"/>
    <path d="M66 360h102M66 368h142"/>
  </g>
  <text x="66" y="72" font-family="Georgia, 'Times New Roman', serif" font-size="18" fill="#103d32" letter-spacing="4">02</text>
  <text x="66" y="386" font-family="Inter, Arial, sans-serif" font-size="12" fill="#103d32" letter-spacing="2">ARBOR EXILII</text>
  <text x="66" y="404" font-family="Inter, Arial, sans-serif" font-size="9" fill="#547367" letter-spacing="1.2">ДРЕВО ИЗГНАНИЯ</text>
</svg>