<svg xmlns="http://www.w3.org/2000/svg" width="640" height="210" viewBox="0 0 640 210" role="img" aria-label="Ветвь с персиковыми точками">
  <path d="M28 154 C110 120 169 137 240 92 C307 50 370 70 430 45 C512 12 578 40 616 22" fill="none" stroke="#222222" stroke-width="3.4" stroke-linecap="round" stroke-linejoin="round" opacity=".72"/>
  <path d="M225 101 C205 72 188 56 160 45M250 87 C259 54 280 33 310 18M407 52 C390 31 380 13 357 6M454 39 C480 55 501 66 526 65M144 127 C122 105 96 95 71 93" fill="none" stroke="#222222" stroke-width="1.65" stroke-linecap="round" opacity=".58"/>
  <g fill="#F3D8CF" stroke="#C97A70" stroke-width="1.1" opacity=".96">
    <circle cx="155" cy="44" r="8"/><circle cx="169" cy="52" r="5"/><circle cx="309" cy="18" r="7"/><circle cx="324" cy="23" r="4.5"/>
    <circle cx="357" cy="7" r="5"/><circle cx="526" cy="65" r="7.5"/><circle cx="542" cy="61" r="4.8"/><circle cx="71" cy="93" r="6"/>
    <circle cx="96" cy="96" r="4"/><circle cx="616" cy="22" r="5.5"/>
  </g>
  <g fill="#C97A70" opacity=".22">
    <circle cx="185" cy="62" r="2"/><circle cx="286" cy="33" r="2.5"/><circle cx="503" cy="76" r="2"/><circle cx="453" cy="35" r="1.8"/><circle cx="127" cy="109" r="2"/>
  </g>
</svg>
