<svg xmlns="http://www.w3.org/2000/svg" width="1600" height="1000" viewBox="0 0 1600 1000" role="img" aria-label="Green Door brand kit asset">
  <defs>
    <style>
  .bg { fill: #FAF8F3; }
  .ink { fill: none; stroke: #222222; stroke-width: 1.25; stroke-linecap: round; stroke-linejoin: round; }
  .ink2 { fill: none; stroke: #222222; stroke-width: 0.85; stroke-linecap: round; stroke-linejoin: round; opacity: .92; }
  .pale { fill: none; stroke: #D9D7CF; stroke-width: 1; stroke-linecap: round; stroke-linejoin: round; }
  .pale2 { fill: none; stroke: #A1A79D; stroke-width: .75; stroke-linecap: round; stroke-linejoin: round; opacity: .52; }
  .green { fill: #5A6F50; stroke: #344F39; stroke-width: 1.1; stroke-linejoin: round; }
  .green-line { fill: none; stroke: #5A6F50; stroke-width: 1.2; stroke-linecap: round; stroke-linejoin: round; }
  .green-dot { fill: #5A6F50; stroke: none; }
  .brass { fill: #B89562; stroke: #222222; stroke-width: .45; }
  .label { fill: #222222; font-family: Georgia, 'Times New Roman', serif; letter-spacing: .18em; }
  .label-green { fill: #344F39; font-family: Georgia, 'Times New Roman', serif; font-style: italic; letter-spacing: .08em; }
</style>
    <filter id="paperNoise" x="0" y="0" width="100%" height="100%">
      <feTurbulence type="fractalNoise" baseFrequency="0.9" numOctaves="2" stitchTiles="stitch"/>
      <feColorMatrix type="saturate" values="0"/>
      <feComponentTransfer><feFuncA type="table" tableValues="0 0.025"/></feComponentTransfer>
    </filter>
    <pattern id="microgrid" width="64" height="64" patternUnits="userSpaceOnUse">
      <path d="M64 0H0V64" class="pale2" opacity=".18"/>
      <circle cx="0" cy="0" r="1" fill="#5A6F50" opacity=".25"/>
    </pattern>
  </defs>

  <rect class="bg" x="0" y="0" width="1600" height="1000"/>
  <rect x="0" y="0" width="1600" height="1000" filter="url(#paperNoise)" opacity=".6"/>
  <rect x="42" y="42" width="1516" height="916" rx="18" class="pale"/>
  <path d="M76 130V76h54 M1470 76h54v54 M1524 870v54h-54 M130 924H76v-54" class="pale2"/>
  <path d="M800 80V930" class="pale2" opacity=".6"/>
  <path d="M280 810C420 720 560 700 660 735M940 735C1040 700 1180 720 1320 810" class="pale2"/>
  <circle cx="800" cy="350" r="215" class="pale"/>
  <circle cx="800" cy="350" r="132" class="pale2"/>
  <circle cx="800" cy="350" r="45" class="pale2"/>
  <path d="M540 350H1060 M800 92v170 M800 438v156" class="pale2"/>
  <path d="M800 225 L670 350 L800 475 L930 350 Z" class="pale2" opacity=".42"/>
  <circle cx="670" cy="350" r="5" class="green-dot" opacity=".55"/><circle cx="930" cy="350" r="5" class="green-dot" opacity=".55"/>
  <circle cx="800" cy="225" r="5" class="green-dot" opacity=".55"/><circle cx="800" cy="475" r="5" class="green-dot" opacity=".55"/>

  <text x="800" y="170" text-anchor="middle" class="label" font-size="34">ЗЕЛЁНАЯ ДВЕРЬ</text>
  <text x="800" y="215" text-anchor="middle" class="label-green" font-size="22">ветвящееся открытое издание</text>
  <path d="M690 242H775 M825 242H910" class="pale2"/><circle cx="800" cy="242" r="5" class="green-line"/>

  <g transform="translate(725,420)">
    <path d="M75 0 C25 50 18 140 18 238 V386 H132 V238 C132 140 125 50 75 0Z" class="pale"/>
    <rect x="36" y="135" width="78" height="178" rx="1" class="green"/>
    <path d="M49 151H101V300H49Z" class="pale2" opacity=".35"/>
    <path d="M49 151H101 M49 300H101 M49 151V300 M101 151V300" stroke="#344F39" fill="none" stroke-width=".8" opacity=".7"/>
    <circle cx="100" cy="228" r="6" class="brass"/>
    <path d="M75 0 V135" class="ink2" opacity=".35"/>
  </g>

  <g opacity=".75">
    <path d="M540 610C600 560 640 555 695 592" class="pale2"/>
    <path d="M1060 610C1000 560 960 555 905 592" class="pale2"/>
    <circle cx="540" cy="610" r="3" class="green-dot" opacity=".5"/><circle cx="695" cy="592" r="3" class="green-dot" opacity=".5"/>
    <circle cx="1060" cy="610" r="3" class="green-dot" opacity=".5"/><circle cx="905" cy="592" r="3" class="green-dot" opacity=".5"/>
    <path d="M595 584 l-24 -15 M616 573 l-8 -28 M984 573 l8 -28 M1005 584 l24 -15" class="pale2"/>
  </g>

  <g opacity=".8">
    <path d="M430 720H1170" class="ink2"/>
    <path d="M578 720c-24 24-40 45-48 68M1022 720c24 24 40 45 48 68" class="pale2"/>
    <path d="M600 760H1000M628 795H972" class="pale2"/>
  </g>

  <g opacity=".55">
    <path d="M185 210v560 M226 130v690 M1415 210v560 M1374 130v690" class="pale2"/>
    <circle cx="185" cy="390" r="4" class="green-line"/><circle cx="226" cy="652" r="4" class="green-line"/>
    <circle cx="1415" cy="390" r="4" class="green-line"/><circle cx="1374" cy="652" r="4" class="green-line"/>
  </g>

</svg>