<?xml version="1.0" encoding="utf-8"?>
<!-- Generator: Adobe Illustrator 27.2.0, SVG Export Plug-In . SVG Version: 6.00 Build 0)  -->
<svg version="1.1" id="Layer_1" xmlns="http://www.w3.org/2000/svg" xmlns:xlink="http://www.w3.org/1999/xlink" x="0px" y="0px"
	 viewBox="0 0 1024 1024" style="enable-background:new 0 0 1024 1024;" xml:space="preserve">
<style type="text/css">
	.st0{fill:none;stroke:#222222;stroke-width:24;}
	.st1{fill:none;stroke:#FFFFFF;stroke-width:42;}
	.st2{fill:none;stroke:#222222;stroke-width:28;}
	.st3{fill:#222222;stroke:#FFFFFF;stroke-width:10;}
	.st4{fill:#FFFFFF;stroke:#FFFFFF;}
</style>
<path class="st0" d="M502,202c-171.2,0-310,138.8-310,310s138.8,310,310,310"/>
<path class="st0" d="M522,202c171.2,0,310,138.8,310,310S693.2,822,522,822"/>
<line class="st1" x1="512" y1="123.5" x2="512" y2="861.7"/>
<line class="st2" x1="512" y1="161.8" x2="512" y2="861.9"/>
<path class="st3" d="M512,322.4L512,322.4c74.5,0,134.8,60.4,134.8,134.8v85.2c0,74.5-60.4,134.8-134.8,134.8l0,0
	c-74.5,0-134.8-60.4-134.8-134.8v-85.2C377.2,382.7,437.5,322.4,512,322.4z"/>
<path class="st4" d="M452.4,499.8v-76.6c0-32.9,26.7-59.6,59.6-59.6c32.9,0,59.6,26.7,59.6,59.6v76.6H452.4z"/>
<path class="st4" d="M490.7,499.8h42.6v110.7c0,17-7.1,25.5-21.3,25.5c-14.2,0-21.3-8.5-21.3-25.5V499.8z"/>
</svg>
