<svg xmlns="http://www.w3.org/2000/svg" width="720" height="440" viewBox="0 0 720 440" role="img" aria-label="Green Door brand kit asset">
  <defs>
    <style>
  .bg { fill: #FBFAF6; }
  .ink { fill: none; stroke: #222522; stroke-width: 1.25; stroke-linecap: round; stroke-linejoin: round; }
  .ink2 { fill: none; stroke: #222522; stroke-width: 0.85; stroke-linecap: round; stroke-linejoin: round; opacity: .92; }
  .pale { fill: none; stroke: #D8D8CF; stroke-width: 1; stroke-linecap: round; stroke-linejoin: round; }
  .pale2 { fill: none; stroke: #A7AAA2; stroke-width: .75; stroke-linecap: round; stroke-linejoin: round; opacity: .52; }
  .green { fill: #427842; stroke: #2E5634; stroke-width: 1.1; stroke-linejoin: round; }
  .green-line { fill: none; stroke: #427842; stroke-width: 1.2; stroke-linecap: round; stroke-linejoin: round; }
  .green-dot { fill: #427842; stroke: none; }
  .brass { fill: #B79A5B; stroke: #222522; stroke-width: .45; }
  .label { fill: #222522; font-family: Georgia, 'Times New Roman', serif; letter-spacing: .18em; }
  .label-green { fill: #2E5634; font-family: Georgia, 'Times New Roman', serif; font-style: italic; letter-spacing: .08em; }
</style>
    <filter id="paperNoise" x="0" y="0" width="100%" height="100%">
      <feTurbulence type="fractalNoise" baseFrequency="0.9" numOctaves="2" stitchTiles="stitch"/>
      <feColorMatrix type="saturate" values="0"/>
      <feComponentTransfer><feFuncA type="table" tableValues="0 0.025"/></feComponentTransfer>
    </filter>
    <pattern id="microgrid" width="64" height="64" patternUnits="userSpaceOnUse">
      <path d="M64 0H0V64" class="pale2" opacity=".18"/>
      <circle cx="0" cy="0" r="1" fill="#427842" opacity=".25"/>
    </pattern>
  </defs>

  <rect class="bg" width="720" height="440"/>
  <rect x="22" y="22" width="676" height="396" rx="16" class="pale"/>
  <path d="M54 88V54h34M632 54h34v34M666 352v34h-34M88 386H54v-34" class="pale2"/>
  <circle cx="360" cy="22" r="4" class="green-dot" opacity=".6"/><path d="M360 22v62" class="pale2"/>
  <text x="70" y="125" class="label" font-size="28">TITLE / CHAPTER CARD</text>
  <text x="70" y="165" class="label-green" font-size="20">subtle line-art frame for web blocks</text>
  <path d="M70 212H248 M296 212H500" class="pale2"/><circle cx="272" cy="212" r="6" class="green-line"/>
  <path d="M70 260h520M70 295h410M70 330h470" class="pale2" opacity=".55"/>
  <g transform="translate(560 245)">
    <rect x="0" y="0" width="64" height="104" class="green" opacity=".9"/>
    <path d="M11 14h42v76H11Z" class="ink2" opacity=".36"/>
    <circle cx="50" cy="55" r="3.5" class="brass"/>
  </g>

</svg>