<svg xmlns="http://www.w3.org/2000/svg" width="1000" height="600" viewBox="0 0 1000 600" role="img" aria-label="Green Door brand kit asset">
  <defs>
    <style>
  .bg { fill: #FBFAF6; }
  .ink { fill: none; stroke: #222522; stroke-width: 1.25; stroke-linecap: round; stroke-linejoin: round; }
  .ink2 { fill: none; stroke: #222522; stroke-width: 0.85; stroke-linecap: round; stroke-linejoin: round; opacity: .92; }
  .pale { fill: none; stroke: #D8D8CF; stroke-width: 1; stroke-linecap: round; stroke-linejoin: round; }
  .pale2 { fill: none; stroke: #A7AAA2; stroke-width: .75; stroke-linecap: round; stroke-linejoin: round; opacity: .52; }
  .green { fill: #427842; stroke: #2E5634; stroke-width: 1.1; stroke-linejoin: round; }
  .green-line { fill: none; stroke: #427842; stroke-width: 1.2; stroke-linecap: round; stroke-linejoin: round; }
  .green-dot { fill: #427842; stroke: none; }
  .brass { fill: #B79A5B; stroke: #222522; stroke-width: .45; }
  .label { fill: #222522; font-family: Georgia, 'Times New Roman', serif; letter-spacing: .18em; }
  .label-green { fill: #2E5634; font-family: Georgia, 'Times New Roman', serif; font-style: italic; letter-spacing: .08em; }
</style>
    <filter id="paperNoise" x="0" y="0" width="100%" height="100%">
      <feTurbulence type="fractalNoise" baseFrequency="0.9" numOctaves="2" stitchTiles="stitch"/>
      <feColorMatrix type="saturate" values="0"/>
      <feComponentTransfer><feFuncA type="table" tableValues="0 0.025"/></feComponentTransfer>
    </filter>
    <pattern id="microgrid" width="64" height="64" patternUnits="userSpaceOnUse">
      <path d="M64 0H0V64" class="pale2" opacity=".18"/>
      <circle cx="0" cy="0" r="1" fill="#427842" opacity=".25"/>
    </pattern>
  </defs>

  <rect fill="none" stroke="#D8D8CF" stroke-width="1.2" x="18" y="18" width="964" height="564" rx="18"/>
  <path d="M50 115V50h65M885 50h65v65M950 485v65h-65M115 550H50v-65" fill="none" stroke="#A7AAA2" stroke-width=".8" opacity=".65"/>
  <path d="M500 18v62M500 520v62M18 300h62M920 300h62" fill="none" stroke="#A7AAA2" stroke-width=".8" opacity=".55"/>
  <circle cx="500" cy="80" r="5" fill="none" stroke="#427842" stroke-width="1.1"/>
  <circle cx="500" cy="520" r="5" fill="none" stroke="#427842" stroke-width="1.1"/>
  <circle cx="80" cy="300" r="5" fill="none" stroke="#427842" stroke-width="1.1"/>
  <circle cx="920" cy="300" r="5" fill="none" stroke="#427842" stroke-width="1.1"/>
  <path d="M180 80H440M560 80H820M180 520H440M560 520H820" fill="none" stroke="#D8D8CF" stroke-width="1"/>

</svg>